<svg width="306" height="41" viewBox="0 0 306 41" fill="none" xmlns="http://www.w3.org/2000/svg">
<path d="M80.4581 31.2021C79.6726 32.435 78.7474 33.5937 77.6891 34.6498C75.7404 36.6006 73.4842 38.0626 71.073 39.038C68.6639 40.0134 66.0999 40.5 63.5382 40.5C60.9764 40.5 58.4146 40.0134 56.0056 39.038C53.5965 38.0648 51.3381 36.6006 49.3895 34.6498L45.6188 30.8791L52.1607 24.3394L55.9314 28.1101C58.0284 30.2071 60.7844 31.2566 63.5404 31.2566C66.2963 31.2566 69.0523 30.2071 71.1515 28.1101C72.1662 27.0932 72.9561 25.9083 73.4885 24.6187C73.5278 24.5271 73.5627 24.4332 73.5998 24.3394L80.4603 31.1999L80.4581 31.2021ZM77.6891 6.35238C73.7875 2.45079 68.6639 0.5 63.5404 0.5C58.4168 0.5 53.291 2.44861 49.3895 6.35238L27.6274 28.1122C26.6127 29.1269 25.4279 29.9168 24.1382 30.4514C22.8508 30.9861 21.4564 31.2654 20.0206 31.2654C18.5848 31.2654 17.1904 30.9839 15.9008 30.4514C14.6134 29.9168 13.4285 29.1313 12.4117 28.1144C10.3147 26.0174 9.26507 23.2614 9.26507 20.5055C9.26507 17.7495 10.3147 14.9935 12.4117 12.8965C14.5086 10.7995 17.2646 9.74772 20.0206 9.74772C22.7766 9.74772 25.5326 10.7973 27.6296 12.8943L31.4003 16.665L37.94 10.123L34.1715 6.35456C30.2699 2.44861 25.1442 0.5 20.0206 0.5C14.8971 0.5 9.7735 2.45079 5.87191 6.35238C1.97032 10.2518 0.0195312 15.3775 0.0195312 20.5011C0.0195312 25.6247 1.97032 30.7482 5.87191 34.6498C7.82271 36.6006 10.079 38.0626 12.4902 39.038C14.8992 40.0134 17.461 40.5 20.025 40.5C22.589 40.5 25.1486 40.0134 27.5576 39.038C29.9666 38.0626 32.2229 36.6006 34.1737 34.6498L55.9336 12.8878C58.0306 10.7908 60.7865 9.74118 63.5425 9.74118C66.2985 9.74118 69.0545 10.7908 71.1537 12.8899C72.1684 13.9046 72.9583 15.0895 73.4907 16.3791C73.53 16.4708 73.5649 16.5668 73.602 16.6606L80.4625 9.80009C79.6769 8.56721 78.7517 7.40852 77.6934 6.3502L77.6891 6.35238Z" fill="url(#paint0_linear_280_7264)"/>
<path d="M97.1032 20.5011C97.1032 11.1683 104.138 3.85606 113.702 3.85606C118.852 3.85606 122.714 5.69557 125.704 8.59121L121.473 12.8223C119.633 10.8453 117.104 9.69535 113.702 9.69535C107.726 9.69535 103.495 14.0639 103.495 20.5011C103.495 26.9383 107.723 31.3527 113.702 31.3527C117.336 31.3527 119.817 30.1569 121.656 28.1799L125.887 32.411C122.898 35.3546 118.944 37.1461 113.702 37.1461C104.184 37.1461 97.1032 29.8819 97.1032 20.5011Z" fill="white"/>
<path d="M128.394 3.85606H134.417V36.6857H128.394V3.85606Z" fill="white"/>
<path d="M137.518 25.5592C137.518 18.9845 142.622 13.9723 149.196 13.9723C155.771 13.9723 160.14 18.6616 160.14 25.0529C160.14 25.8341 160.048 26.6633 159.817 27.6736L143.586 27.7195C144.322 30.4776 146.482 32.088 149.563 32.088C151.769 32.088 153.7 31.3068 155.033 29.7881L158.573 33.3274C156.367 35.8565 153.194 37.1439 149.607 37.1439C142.663 37.1439 137.513 32.2691 137.513 25.557L137.518 25.5592ZM143.586 23.2134H154.346C153.748 20.4553 152 18.9824 149.196 18.9824C146.347 19.0282 144.322 20.5927 143.586 23.2134Z" fill="white"/>
<path d="M161.82 25.605C161.82 19.0304 166.417 14.0181 172.44 14.0181C175.107 14.0181 177.361 14.9826 178.923 16.593V14.4785H184.9V36.6857H178.923V34.5712C177.361 36.1816 175.107 37.1461 172.486 37.1461C166.417 37.1461 161.82 32.1797 161.82 25.605ZM179.246 25.5592C179.246 22.0657 176.946 19.5824 173.59 19.5824C170.234 19.5824 167.98 22.0657 167.98 25.5592C167.98 29.0527 170.28 31.5818 173.59 31.5818C176.9 31.5818 179.246 29.0985 179.246 25.5592Z" fill="white"/>
<path d="M189.384 14.4763H195.407V16.4533C196.74 14.8909 198.625 14.0159 201.154 14.0159C203.315 14.0159 205.017 14.7054 206.396 16.2678L202.625 20.5906C201.89 19.8552 201.015 19.4864 199.775 19.4864C197.154 19.4864 195.407 21.0968 195.407 24.407V36.6835H189.384V14.4763Z" fill="white"/>
<path d="M207.923 20.5011C207.923 11.1683 214.958 3.85606 224.522 3.85606C229.672 3.85606 233.534 5.69557 236.524 8.59121L232.293 12.8223C230.453 10.8453 227.924 9.69535 224.522 9.69535C218.546 9.69535 214.314 14.0639 214.314 20.5011C214.314 26.9383 218.543 31.3527 224.522 31.3527C228.156 31.3527 230.637 30.1569 232.476 28.1799L236.707 32.411C233.718 35.3546 229.764 37.1461 224.522 37.1461C215.004 37.1461 207.923 29.8819 207.923 20.5011Z" fill="white"/>
<path d="M237.785 25.605C237.785 19.0304 242.383 14.0181 248.405 14.0181C251.072 14.0181 253.326 14.9826 254.888 16.593V14.4785H260.865V36.6857H254.888V34.5712C253.326 36.1816 251.072 37.1461 248.451 37.1461C242.383 37.1461 237.785 32.1797 237.785 25.605ZM255.211 25.5592C255.211 22.0657 252.911 19.5824 249.555 19.5824C246.199 19.5824 243.945 22.0657 243.945 25.5592C243.945 29.0527 246.245 31.5818 249.555 31.5818C252.866 31.5818 255.211 29.0985 255.211 25.5592Z" fill="white"/>
<path d="M263.322 33.0983L266.907 29.4651C268.424 31.1672 270.447 32.04 272.93 32.04C274.861 32.04 275.919 31.4879 275.919 30.3838C275.919 26.7506 264.747 29.0505 264.747 20.9113C264.747 16.6802 268.011 13.9221 273.299 13.9221C276.978 13.9221 280.057 15.2553 281.988 17.7844L278.355 21.4176C277.021 19.7614 275.273 19.0718 273.342 19.0718C271.549 19.0718 270.584 19.6239 270.584 20.6342C270.584 23.8986 281.711 21.8758 281.711 30.1067C281.711 34.4752 278.355 37.1876 272.974 37.1876C269.157 37.1876 265.526 35.671 263.318 33.0961L263.322 33.0983Z" fill="white"/>
<path d="M285.014 3.85606H291.037V16.5471C292.554 14.9389 294.762 14.0181 297.337 14.0181C302.395 14.0181 305.98 17.5574 305.98 22.6155V36.6857H299.957V23.9488C299.957 21.3281 298.118 19.4886 295.497 19.4886C292.876 19.4886 291.037 21.3281 291.037 23.9488V36.6857H285.014V3.85606Z" fill="white"/>
<defs>
<linearGradient id="paint0_linear_280_7264" x1="0.0195312" y1="20.5011" x2="81.5418" y2="20.5011" gradientUnits="userSpaceOnUse">
<stop stop-color="#31D2F7"/>
<stop offset="1" stop-color="#44E0AC"/>
</linearGradient>
</defs>
</svg>
